<?xml version="1.0" standalone="no"?>
<!DOCTYPE svg PUBLIC "-//W3C//DTD SVG 20010904//EN"
 "http://www.w3.org/TR/2001/REC-SVG-20010904/DTD/svg10.dtd">
<svg version="1.0" xmlns="http://www.w3.org/2000/svg"
 width="407.000000pt" height="192.000000pt" viewBox="0 0 407.000000 192.000000"
 preserveAspectRatio="xMidYMid meet">

<g transform="translate(0.000000,192.000000) scale(0.100000,-0.100000)"
fill="#000000" stroke="none">
<path d="M150 1375 c0 -3 0 -179 0 -392 0 -365 1 -388 17 -388 16 0 19 14 23
139 l5 138 210 -140 c189 -127 210 -139 214 -119 2 13 -4 26 -14 32 -59 34
-415 271 -415 276 0 3 28 18 63 34 199 92 351 165 360 174 5 5 7 16 5 23 -3 7
-97 55 -209 107 -112 52 -211 100 -220 107 -15 14 -39 19 -39 9z m230 -140
c58 -26 125 -56 149 -67 24 -11 40 -23 35 -28 -17 -16 -367 -169 -376 -164 -9
6 -11 327 -2 337 6 6 25 -2 194 -78z"/>
<path d="M780 985 l0 -395 235 0 c228 0 235 1 235 20 0 19 -7 20 -215 20
l-215 0 0 170 0 171 213 -2 c190 -2 212 0 215 15 3 14 -17 16 -212 16 l-216 0
0 170 0 170 215 0 c175 0 215 3 215 14 0 20 -55 26 -272 26 l-198 0 0 -395z"/>
<path d="M3526 1355 c-9 -26 -7 -32 5 -12 6 10 9 21 6 23 -2 3 -7 -2 -11 -11z"/>
<path d="M3571 1334 c0 -11 3 -14 6 -6 3 7 2 16 -1 19 -3 4 -6 -2 -5 -13z"/>
<path d="M3537 1296 c-4 -10 0 -12 14 -9 22 6 26 23 5 23 -8 0 -16 -6 -19 -14z"/>
<path d="M3597 1239 c4 -13 8 -18 11 -10 2 7 -1 18 -6 23 -8 8 -9 4 -5 -13z"/>
<path d="M3617 1165 c3 -16 7 -42 7 -57 1 -14 5 -24 10 -21 5 3 6 -9 4 -28 -4
-22 14 -103 52 -244 45 -167 61 -211 75 -214 13 -2 17 2 13 15 -3 11 -38 136
-77 279 -39 143 -76 269 -81 280 -8 16 -9 14 -3 -10z m52 -199 c7 -27 10 -50
8 -53 -3 -2 -11 24 -20 58 -8 34 -12 57 -8 53 5 -5 14 -31 20 -58z"/>
<path d="M1445 970 c10 -11 20 -20 23 -20 3 0 -3 9 -13 20 -10 11 -20 20 -23
20 -3 0 3 -9 13 -20z"/>
</g>
</svg>
